{"title":"Lord of War 2005 BRRiP x246 Esub 280MB - cRcWoRLd","uid":7916821,"size":293138702,"categoryP":"video","categoryS":"movies","magnet":"?xt=urn:btih:1370078ea4edc8bcfa0b98d4dc83d969e76bbc38&amp;dn=Lord+of+War+2005+BRRiP+x246+Esub+280MB+-+cRcWoRLd&amp;tr=udp%3A%2F%2Ftracker.openbittorrent.com%3A80&amp;tr=udp%3A%2F%2Fopen.demonii.com%3A1337&amp;tr=udp%3A%2F%2Ftracker.coppersurfer.tk%3A6969&amp;tr=udp%3A%2F%2Fexodus.desync.com%3A6969","seeders":1,"leechers":0,"uploader":"CRCWORLD","files":1,"time":1355389575,"description":"General\nComplete name                            : Lord of War 2005 BRRiP x246 Esub 280MB - cRcWoRLd [crcworldmovies . ws].mp4\nFormat                                   : MPEG-4\nFormat profile                           : Base Media / Version 2\nCodec ID                                 : mp42\nFile size                                : 280 MiB\nDuration                                 : 2h 1mn\nOverall bit rate mode                    : Variable\nOverall bit rate                         : 321 Kbps\n\nVideo\nID                                       : 1\nFormat                                   : AVC\nFormat/Info                              : Advanced Video Codec\nFormat profile                           : &lt;a class=&quot;__cf_email__&quot; href=&quot;/cdn-cgi/l/email-protection&quot; data-cfemail=&quot;044c6d636c4448362a35&quot;&gt;[email&amp;#160;protected]&lt;/a&gt;&lt;script cf-hash='f9e31' type=&quot;text/javascript&quot;&gt;\n/* &lt;![CDATA[ */!function(){try{var t=&quot;currentScript&quot;in document?document.currentScript:function(){for(var t=document.getElementsByTagName(&quot;script&quot;),e=t.length;e--;)if(t[e].getAttribute(&quot;cf-hash&quot;))return t[e]}();if(t&amp;&amp;t.previousSibling){var e,r,n,i,c=t.previousSibling,a=c.getAttribute(&quot;data-cfemail&quot;);if(a){for(e=&quot;&quot;,r=parseInt(a.substr(0,2),16),n=2;a.length-n;n+=2)i=parseInt(a.substr(n,2),16)^r,e+=String.fromCharCode(i);e=document.createTextNode(e),c.parentNode.replaceChild(e,c)}}}catch(u){}}();/* ]]&gt; */&lt;/script&gt;\nFormat settings, CABAC                   : No\nFormat settings, ReFrames                : 4 frames\nCodec ID                                 : avc1\nCodec ID/Info                            : Advanced Video Coding\nDuration                                 : 2h 1mn\nBit rate mode                            : Variable\nBit rate                                 : 250 Kbps\nWidth                                    : 640 pixels\nHeight                                   : 256 pixels\nDisplay aspect ratio                     : 2.40:1\nOriginal display aspect ratio            : 2.40:1\nFrame rate mode                          : Variable\nFrame rate                               : 23.976 fps\nMinimum frame rate                       : 23.974 fps\nMaximum frame rate                       : 90 000.000 fps\nColor space                              : YUV\nChroma subsampling                       : 4:2:0\nBit depth                                : 8 bits\nScan type                                : Progressive\nBits/(Pixel*Frame)                       : 0.064\nStream size                              : 219 MiB (78%)\nWriting library                          : x264 core 120\n\nAudio\nID                                       : 2\nFormat                                   : AAC\nFormat/Info                              : Advanced Audio Codec\nFormat profile                           : LC\nCodec ID                                 : 40\nDuration                                 : 2h 1mn\nBit rate mode                            : Variable\nBit rate                                 : 64.2 Kbps\nMaximum bit rate                         : 114 Kbps\nChannel(s)                               : 2 channels\nChannel positions                        : Front: L R\nSampling rate                            : 48.0 KHz\nCompression mode                         : Lossy\nStream size                              : 55.9 MiB (20%)\nText\nID                                       : 3\nFormat                                   : Timed text\nMuxing mode                              : sbtl\nCodec ID                                 : tx3g\nDuration                                 : 1h 55mn\nBit rate mode                            : Variable\nBit rate                                 : 69 bps\nStream size                              : 58.4 KiB (0%)\nLanguage                                 : English\n &lt;a href=&quot;\nhttp://www.postimg.com/96000/low-95066.jpg&quot; rel=&quot;nofollow&quot; target=&quot;_NEW&quot;&gt;\nhttp://www.postimg.com/96000/low-95066.jpg&lt;/a&gt; &lt;a href=&quot;\nhttp://www.postimg.com/96000/gggg-95107.jpg&quot; rel=&quot;nofollow&quot; target=&quot;_NEW&quot;&gt;\nhttp://www.postimg.com/96000/gggg-95107.jpg&lt;/a&gt;\n\nfb . com / CRCWORLDtorrents","torrent":{"xt":"urn:btih:1370078ea4edc8bcfa0b98d4dc83d969e76bbc38","amp;dn":"Lord+of+War+2005+BRRiP+x246+Esub+280MB+-+cRcWoRLd","amp;tr":["udp%3A%2F%2Ftracker.openbittorrent.com%3A80","udp%3A%2F%2Fopen.demonii.com%3A1337","udp%3A%2F%2Ftracker.coppersurfer.tk%3A6969","udp%3A%2F%2Fexodus.desync.com%3A6969"],"infoHash":"1370078ea4edc8bcfa0b98d4dc83d969e76bbc38","infoHashBuffer":{"type":"Buffer","data":[19,112,7,142,164,237,200,188,250,11,152,212,220,131,217,105,231,107,188,56]},"announce":[],"urlList":[]}}